<svg width="42" height="36" viewBox="0 0 42 36" fill="none" xmlns="http://www.w3.org/2000/svg">
<path d="M3.95455 35.4111C3.05121 34.9484 2.71508 34.6119 2.25291 33.7075C1.7067 32.6559 1.66468 33.4246 1.66468 30.9639V29.3349L0.929406 28.4726C0.131103 27.5472 -0.142001 24.6218 0.0680786 23.5281C0.131103 23.1285 0.530254 22.4344 0.929406 21.9717C1.62267 21.1515 1.66468 20.0253 1.66468 18.5531V16.9757L0.88739 16.4709C0.446222 16.1975 0.0680786 15.7979 0.0260627 15.6086C-0.0159533 15.4193 0.299166 14.7884 0.719326 14.1995C1.30755 13.4003 1.60166 10.6641 1.89577 9.31811C2.39996 7.02563 3.30331 5.34308 4.79487 3.91292C6.13938 2.62997 7.58893 1.80973 9.37461 1.34703C10.2772 1.11586 15.6368 0.000187072 21 2.35932e-08C26.3719 -0.000187328 31.7474 1.11549 32.6514 1.34703C36.5589 2.37759 39.395 5.49031 40.1723 9.57049C40.3824 10.7483 40.6135 11.2741 41.2227 12.0102C42.2731 13.2931 42.2521 15.9031 41.1597 16.534L40.3194 17.0177V18.6162C40.3194 20.0253 40.3824 21.2567 40.8236 21.6773C41.5168 22.3293 42 23.3809 42 24.2011C42 24.9793 41.3698 28.2833 40.7605 28.788C40.3614 29.1245 40.3194 28.398 40.2984 30.8377C40.2984 32.3309 40.1723 32.8242 40.0463 33.2238C39.7101 34.1282 38.7228 35.1377 37.6934 35.6004C36.8951 35.9579 35.9077 36 20.971 36H5.06798L3.95455 35.4111ZM37.8404 33.5182L38.5337 32.8452L38.5967 31.2162L38.6807 29.5872H20.992H3.30331L3.38734 31.1952C3.45036 33.6559 3.49238 32.8452 3.97556 33.371C4.26967 33.6865 4.68983 34.023 4.92092 34.1282C5.15201 34.2123 12.5048 34.2754 21.2441 34.2544L37.1682 34.2123L37.8404 33.5182ZM39.7942 27.3789C40.1303 27.0634 40.3194 24.6218 40.3194 24.2221C40.3194 23.8225 40.1303 23.3809 39.7942 23.0654L39.29 22.5396H20.992H2.69408L2.18988 23.0654C1.85376 23.3809 1.66468 23.8225 1.66468 24.2221C1.66468 24.6218 1.85376 27.0634 2.18988 27.3789L2.69408 27.9047H20.992H39.29L39.7942 27.3789ZM38.6387 18.6162V17.3963L37.4413 17.2701C36.769 17.2281 35.8867 16.9967 35.4665 16.8074C34.7102 16.4499 34.6892 16.4499 33.3027 17.1229C32.0842 17.7328 31.6641 17.817 30.3406 17.817C29.0171 17.817 28.5759 17.7328 27.4415 17.165L26.076 16.4919L24.4373 17.2701C22.9458 17.9852 22.6096 18.0693 21.0971 18.0693C19.5845 18.0693 19.2484 17.9852 17.7148 17.2701L16.0131 16.4499L14.9837 16.9967C12.7359 18.1535 10.7191 18.1535 8.5553 16.9757C7.54692 16.4289 7.52591 16.4289 6.74861 16.7864C6.32846 16.9967 5.3831 17.2281 4.66883 17.2912L3.34532 17.3963V18.6162V20.857H20.992H38.6387V18.6162ZM24.3533 15.4404L26.16 14.578L27.6936 15.3773C29.7734 16.4499 30.9708 16.4499 33.1346 15.3562L34.6472 14.5991L35.6976 15.1249C36.8951 15.7348 38.9118 15.861 39.6051 15.3562C40.0042 15.0618 40.0042 15.0407 39.5 14.515L38.9959 11.9681H20.971H2.94617L2.52601 14.578L2.10585 15.1669L2.63105 15.4193C3.57641 15.84 5.36209 15.7138 6.51753 15.1038L7.58893 14.578L9.0805 15.3562C11.1813 16.4709 12.3788 16.4709 14.5216 15.3562L16.0762 14.557L17.4417 15.2511C20.4038 16.7443 21.5172 16.7864 24.3533 15.4404ZM38.5337 9.61255C38.4707 9.23398 38.0715 8.24548 37.6934 7.42524C36.811 5.6165 35.5716 4.39665 33.6388 3.49228L32.2313 2.81926L26.5 2L21.0971 1.81926C10.5 2 9.89981 2.84029 8.87042 3.21886C6.53854 4.08117 4.56379 6.16333 3.78649 8.53993C3.53439 9.27604 3.34532 9.9701 3.34532 10.0753C3.34532 10.2225 9.62671 10.2856 21.013 10.2856H38.6807L38.5337 9.61255Z" fill="#FFD900"/>
<path d="M12.1687 9.02363C11.3704 8.22442 11.9166 6.92044 13.051 6.92044C13.5552 6.92044 14.2695 7.65656 14.2695 8.18235C14.2695 8.4137 14.0804 8.79228 13.8493 9.02363C13.6182 9.25498 13.2401 9.44427 13.009 9.44427C12.7779 9.44427 12.3998 9.25498 12.1687 9.02363Z" fill="#FFD900"/>
<path d="M9.64759 6.49984C9.08037 5.93198 9.10138 5.13277 9.68961 4.73316C10.3198 4.2915 10.824 4.31253 11.3282 4.81729C11.8954 5.38515 11.8744 6.18436 11.2862 6.58397C10.656 7.02564 10.1518 7.00461 9.64759 6.49984Z" fill="#FFD900"/>
<path d="M13.8492 5.65858C13.0509 4.85937 13.5971 3.55539 14.7316 3.55539C15.2358 3.55539 15.95 4.29151 15.95 4.8173C15.95 5.04865 15.761 5.42723 15.5299 5.65858C15.2988 5.88993 14.9206 6.07921 14.6895 6.07921C14.4585 6.07921 14.0803 5.88993 13.8492 5.65858Z" fill="#FFD900"/>
<path d="M14.4833 22.0001L34.9602 22L27.5154 26.2635L13.5467 22.4706L14.4833 22.0001Z" fill="#FFD900"/>
</svg>
