<svg width="33" height="36" viewBox="0 0 33 36" fill="none" xmlns="http://www.w3.org/2000/svg">
<path d="M4.69565 35.7652C4.08913 35.413 3.83478 34.9826 3.81522 34.3174V33.6913L2.54348 33.613C1.4087 33.5543 1.19348 33.4565 0.626087 32.9087L0 32.2826V17.6087V2.93478L0.645652 2.3087C1.25217 1.70217 1.36957 1.66304 2.93478 1.58478C4.5 1.52609 4.59783 1.50652 4.71522 1.05652C4.95 0.117391 5.4 0 8.96087 0C12.1891 0 12.2478 0 12.7174 0.48913C12.9913 0.743478 13.2065 1.09565 13.2065 1.27174C13.2065 1.52609 13.6761 1.56522 16.7283 1.56522H20.25L20.3674 1.07609C20.6022 0.136957 21.0717 0 24.2217 0C27.0391 0 27.137 0.0195652 27.587 0.48913C27.8609 0.743478 28.0761 1.09565 28.0761 1.27174C28.0761 1.50652 28.35 1.56522 29.4652 1.56522C31.0891 1.56522 31.95 1.89783 32.4391 2.71957C32.7522 3.24783 32.7717 4.46087 32.7717 17.687V32.087L32.1065 32.8109C31.5 33.4761 31.363 33.5348 30.15 33.613L28.8587 33.6913V34.3761C28.8587 34.8261 28.7022 35.1978 28.3696 35.5109C27.9391 35.9413 27.7435 36 26.3152 36C24.1435 36 23.4 35.5696 23.3804 34.2978V33.6522H16.337H9.29348V34.337C9.29348 34.8261 9.13696 35.1978 8.80435 35.5109C8.37391 35.9609 8.17826 36 6.71087 36C5.81087 36 4.91087 35.8826 4.69565 35.7652ZM7.72826 34.0435C7.72826 33.6913 7.5913 33.6522 6.55435 33.6522C5.51739 33.6522 5.38043 33.6913 5.38043 34.0435C5.38043 34.3957 5.51739 34.4348 6.55435 34.4348C7.5913 34.4348 7.72826 34.3957 7.72826 34.0435ZM27.2935 34.0435C27.2935 33.6913 27.1565 33.6522 26.1196 33.6522C25.0826 33.6522 24.9457 33.6913 24.9457 34.0435C24.9457 34.3957 25.0826 34.4348 26.1196 34.4348C27.1565 34.4348 27.2935 34.3957 27.2935 34.0435ZM30.9717 31.8522C31.3043 31.5196 31.3043 3.69783 30.9717 3.36522C30.6391 3.03261 2.03478 3.03261 1.70217 3.36522C1.36957 3.69783 1.36957 31.5196 1.70217 31.8522C2.03478 32.1848 30.6391 32.1848 30.9717 31.8522Z" fill="#FFD900"/>
<path d="M5.76369 10.2188C4.15137 8.71875 5.25787 6 7.53409 6C8.76704 6 10 7.25 10 8.5C10 9.75 8.76704 11 7.53409 11C6.99665 11 6.26952 10.6875 5.76369 10.2188Z" fill="#FFD900"/>
<path d="M5.76369 16.2188C4.15137 14.7188 5.25787 12 7.53409 12C8.76704 12 10 13.25 10 14.5C10 15.75 8.76704 17 7.53409 17C6.99665 17 6.26952 16.6875 5.76369 16.2188Z" fill="#FFD900"/>
<path d="M5.76369 22.2188C4.15137 20.7188 5.25787 18 7.53409 18C8.76704 18 10 19.25 10 20.5C10 21.75 8.76704 23 7.53409 23C6.99665 23 6.26952 22.6875 5.76369 22.2188Z" fill="#FFD900"/>
<path d="M5.76369 28.2188C4.15137 26.7188 5.25787 24 7.53409 24C8.76704 24 10 25.25 10 26.5C10 27.75 8.76704 29 7.53409 29C6.99665 29 6.26952 28.6875 5.76369 28.2188Z" fill="#FFD900"/>
<path d="M26.4468 7.07288L27.9454 7.13677L26.5 28.0538L25.5523 28.0538L26.4468 7.07288Z" fill="#FFD900"/>
<path d="M21.9675 7.1286L23.4602 6.98022L25 28L24.0449 28.0256L21.9675 7.1286Z" fill="#FFD900"/>
<rect x="12" y="6" width="5" height="5" rx="1" fill="#FFD900"/>
<rect x="12" y="12" width="5" height="5" rx="1" fill="#FFD900"/>
<rect x="12" y="18" width="5" height="5" rx="1" fill="#FFD900"/>
<rect x="12" y="24" width="5" height="5" rx="1" fill="#FFD900"/>
</svg>
